<svg width="108" height="31" viewBox="0 0 108 31" fill="none" xmlns="http://www.w3.org/2000/svg">
<path d="M7.368 24.288C6.168 24.288 5.16 24.096 4.344 23.712C3.528 23.328 2.896 22.808 2.448 22.152C2 21.496 1.744 20.768 1.68 19.968L4.512 19.848C4.64 20.456 4.936 20.944 5.4 21.312C5.864 21.664 6.528 21.84 7.392 21.84C9.008 21.84 9.816 21.408 9.816 20.544C9.816 20.272 9.744 20.04 9.6 19.848C9.472 19.656 9.208 19.496 8.808 19.368C8.408 19.224 7.816 19.072 7.032 18.912C5.752 18.672 4.744 18.384 4.008 18.048C3.272 17.696 2.744 17.264 2.424 16.752C2.12 16.24 1.968 15.616 1.968 14.88C1.968 13.76 2.392 12.816 3.24 12.048C4.104 11.28 5.384 10.896 7.08 10.896C8.296 10.896 9.288 11.096 10.056 11.496C10.824 11.896 11.408 12.416 11.808 13.056C12.224 13.696 12.48 14.384 12.576 15.12L9.72 15.264C9.608 14.704 9.328 14.248 8.88 13.896C8.432 13.528 7.84 13.344 7.104 13.344C6.32 13.344 5.752 13.496 5.4 13.8C5.048 14.104 4.872 14.464 4.872 14.88C4.872 15.392 5.08 15.768 5.496 16.008C5.928 16.232 6.72 16.456 7.872 16.68C9.136 16.92 10.12 17.2 10.824 17.52C11.528 17.84 12.016 18.24 12.288 18.72C12.576 19.2 12.72 19.8 12.72 20.52C12.72 21.688 12.24 22.608 11.28 23.28C10.32 23.952 9.016 24.288 7.368 24.288ZM15.9266 27.6V11.184H18.6386L18.6866 13.272C19.4546 11.688 20.7426 10.896 22.5506 10.896C23.7346 10.896 24.7106 11.2 25.4786 11.808C26.2626 12.4 26.8386 13.208 27.2066 14.232C27.5906 15.24 27.7826 16.36 27.7826 17.592C27.7826 18.824 27.5906 19.944 27.2066 20.952C26.8386 21.96 26.2626 22.768 25.4786 23.376C24.7106 23.984 23.7346 24.288 22.5506 24.288C21.7026 24.288 20.9506 24.12 20.2946 23.784C19.6386 23.432 19.1266 22.92 18.7586 22.248V27.6H15.9266ZM21.8306 21.744C22.7746 21.744 23.5106 21.4 24.0386 20.712C24.5666 20.008 24.8306 18.968 24.8306 17.592C24.8306 16.216 24.5666 15.184 24.0386 14.496C23.5106 13.792 22.7746 13.44 21.8306 13.44C20.9186 13.44 20.1746 13.784 19.5986 14.472C19.0386 15.16 18.7586 16.2 18.7586 17.592C18.7586 18.984 19.0386 20.024 19.5986 20.712C20.1746 21.4 20.9186 21.744 21.8306 21.744ZM30.6533 24V21.696H33.8213V13.488H30.6533V11.184H35.9813L36.1493 13.68C36.5493 12.016 37.5733 11.184 39.2213 11.184H42.0293V13.56H39.3893C37.5653 13.56 36.6533 14.544 36.6533 16.512V21.696H40.6133V24H30.6533ZM44.8999 24V21.696H49.7959V13.488H45.1399V11.184H52.6279V21.696H56.8039V24H44.8999ZM49.6759 9.48V6.792H52.5559V9.48H49.6759ZM59.3865 24V11.184H61.9785L62.0505 13.488C62.3865 12.608 62.8985 11.96 63.5865 11.544C64.2905 11.112 65.0905 10.896 65.9865 10.896C66.9305 10.896 67.7065 11.104 68.3145 11.52C68.9225 11.936 69.3785 12.512 69.6825 13.248C69.9865 13.968 70.1385 14.792 70.1385 15.72V24H67.3065V16.392C67.3065 14.344 66.5465 13.32 65.0265 13.32C64.2585 13.32 63.5945 13.592 63.0345 14.136C62.4905 14.664 62.2185 15.448 62.2185 16.488V24H59.3865ZM80.9531 24C79.5771 24 78.5611 23.688 77.9051 23.064C77.2491 22.424 76.9211 21.456 76.9211 20.16V13.488H73.0571V11.184H76.9211V8.184H79.7531V11.184H84.6251V13.488H79.7531V19.944C79.7531 21.112 80.3211 21.696 81.4571 21.696H84.6251V24H80.9531Z" fill="black"></path>
<path d="M108 24V8L104 9.5L105 22L98 23L100 27L108 24Z" fill="black"></path>
<path d="M100 5L92 8V24L96.5 22.5L95 10L101.5 8.5L100 5Z" fill="black"></path>
<path d="M108 8L100 5L101.5 8.5L104 9.5L108 8Z" fill="#BDBDBD"></path>
<path d="M104 9.5L101.5 8.5L98 23L104 9.5Z" fill="black"></path>
<path d="M96.5 22.5L98 23L101.5 8.5L96.5 22.5Z" fill="#212121"></path>
<path d="M92 24L100 27L98 23L96.5 22.5L92 24Z" fill="#424242"></path>
</svg>